<?xml version="1.0" encoding="UTF-8" standalone="no" ?>
<!DOCTYPE svg PUBLIC "-//W3C//DTD SVG 1.1//EN" "http://www.w3.org/Graphics/SVG/1.1/DTD/svg11.dtd">
<svg xmlns="http://www.w3.org/2000/svg" xmlns:xlink="http://www.w3.org/1999/xlink" version="1.1" width="640" height="480" viewBox="0 0 640 480" xml:space="preserve">
<desc>Created with Fabric.js 3.6.3</desc>
<defs>
</defs>
<g transform="matrix(1 0 0 1 328.5 246.5)"  >
<path style="stroke: none; stroke-width: 1; stroke-dasharray: none; stroke-linecap: butt; stroke-dashoffset: 0; stroke-linejoin: miter; stroke-miterlimit: 4; fill: rgb(255,255,255); fill-rule: nonzero; opacity: 1;"  transform=" translate(-256, -256)" d="M 464 64 C 490.5 64 512 85.49 512 112 C 512 127.1 504.9 141.3 492.8 150.4 L 275.2 313.6 C 263.8 322.1 248.2 322.1 236.8 313.6 L 19.2 150.4 C 7.113 141.3 0 127.1 0 112 C 0 85.49 21.49 64 48 64 H 464 z M 217.6 339.2 C 240.4 356.3 271.6 356.3 294.4 339.2 L 512 176 V 384 C 512 419.3 483.3 448 448 448 H 64 C 28.65 448 0 419.3 0 384 V 176 L 217.6 339.2 z" stroke-linecap="round" />
</g>
</svg>