<?xml version="1.0" encoding="UTF-8" standalone="no" ?>
<!DOCTYPE svg PUBLIC "-//W3C//DTD SVG 1.1//EN" "http://www.w3.org/Graphics/SVG/1.1/DTD/svg11.dtd">
<svg xmlns="http://www.w3.org/2000/svg" xmlns:xlink="http://www.w3.org/1999/xlink" version="1.1" width="640" height="480" viewBox="0 0 640 480" xml:space="preserve">
<desc>Created with Fabric.js 3.6.3</desc>
<defs>
</defs>
<g transform="matrix(1 0 0 1 322.63 243.58)"  >
<path style="stroke: none; stroke-width: 1; stroke-dasharray: none; stroke-linecap: butt; stroke-dashoffset: 0; stroke-linejoin: miter; stroke-miterlimit: 4; fill: rgb(255,255,255); fill-rule: nonzero; opacity: 1;"  transform=" translate(-224.05, -255.9)" d="M 224.1 141 c -63.6 0 -114.9 51.3 -114.9 114.9 s 51.3 114.9 114.9 114.9 S 339 319.5 339 255.9 S 287.7 141 224.1 141 z m 0 189.6 c -41.1 0 -74.7 -33.5 -74.7 -74.7 s 33.5 -74.7 74.7 -74.7 s 74.7 33.5 74.7 74.7 s -33.6 74.7 -74.7 74.7 z m 146.4 -194.3 c 0 14.9 -12 26.8 -26.8 26.8 c -14.9 0 -26.8 -12 -26.8 -26.8 s 12 -26.8 26.8 -26.8 s 26.8 12 26.8 26.8 z m 76.1 27.2 c -1.7 -35.9 -9.9 -67.7 -36.2 -93.9 c -26.2 -26.2 -58 -34.4 -93.9 -36.2 c -37 -2.1 -147.9 -2.1 -184.9 0 c -35.8 1.7 -67.6 9.9 -93.9 36.1 s -34.4 58 -36.2 93.9 c -2.1 37 -2.1 147.9 0 184.9 c 1.7 35.9 9.9 67.7 36.2 93.9 s 58 34.4 93.9 36.2 c 37 2.1 147.9 2.1 184.9 0 c 35.9 -1.7 67.7 -9.9 93.9 -36.2 c 26.2 -26.2 34.4 -58 36.2 -93.9 c 2.1 -37 2.1 -147.8 0 -184.8 z M 398.8 388 c -7.8 19.6 -22.9 34.7 -42.6 42.6 c -29.5 11.7 -99.5 9 -132.1 9 s -102.7 2.6 -132.1 -9 c -19.6 -7.8 -34.7 -22.9 -42.6 -42.6 c -11.7 -29.5 -9 -99.5 -9 -132.1 s -2.6 -102.7 9 -132.1 c 7.8 -19.6 22.9 -34.7 42.6 -42.6 c 29.5 -11.7 99.5 -9 132.1 -9 s 102.7 -2.6 132.1 9 c 19.6 7.8 34.7 22.9 42.6 42.6 c 11.7 29.5 9 99.5 9 132.1 s 2.7 102.7 -9 132.1 z" stroke-linecap="round" />
</g>
</svg>